{
    "asset" : {
        "generator" : "Khronos glTF Blender I/O v3.4.50",
        "version" : "2.0"
    },
    "scene" : 0,
    "scenes" : [
        {
            "name" : "Scene",
            "nodes" : [
                0,
                1
            ]
        }
    ],
    "nodes" : [
        {
            "mesh" : 0,
            "name" : "Cube",
            "scale" : [
                3.0999999046325684,
                0.10000000149011612,
                3.0999999046325684
            ],
            "translation" : [
                2.076364278793335,
                0,
                0
            ]
        },
        {
            "mesh" : 1,
            "name" : "Door",
            "rotation" : [
                0,
                -0.7071068286895752,
                0,
                0.7071068286895752
            ],
            "translation" : [
                0,
                2.098917245864868,
                -2.95939040184021
            ]
        }
    ],
    "materials" : [
        {
            "doubleSided" : true,
            "name" : "Material",
            "pbrMetallicRoughness" : {
                "baseColorFactor" : [
                    0.800000011920929,
                    0.800000011920929,
                    0.800000011920929,
                    1
                ],
                "metallicFactor" : 0,
                "roughnessFactor" : 0.5
            }
        },
        {
            "doubleSided" : true,
            "name" : "Material.001",
            "pbrMetallicRoughness" : {
                "baseColorFactor" : [
                    0.800000011920929,
                    0.800000011920929,
                    0.800000011920929,
                    1
                ],
                "metallicFactor" : 0,
                "roughnessFactor" : 0.5
            }
        }
    ],
    "meshes" : [
        {
            "name" : "Cube",
            "primitives" : [
                {
                    "attributes" : {
                        "POSITION" : 0,
                        "TEXCOORD_0" : 1,
                        "NORMAL" : 2
                    },
                    "indices" : 3,
                    "material" : 0
                }
            ]
        },
        {
            "extras" : {
                "targetNames" : [
                    "Door"
                ]
            },
            "name" : "Cube.001",
            "primitives" : [
                {
                    "attributes" : {
                        "POSITION" : 4,
                        "TEXCOORD_0" : 5,
                        "NORMAL" : 6
                    },
                    "indices" : 7,
                    "material" : 1,
                    "targets" : [
                        {
                            "POSITION" : 8,
                            "NORMAL" : 9
                        }
                    ]
                }
            ],
            "weights" : [
                0
            ]
        }
    ],
    "accessors" : [
        {
            "bufferView" : 0,
            "componentType" : 5126,
            "count" : 697,
            "max" : [
                1.3225806951522827,
                51,
                0.6462365984916687
            ],
            "min" : [
                -1,
                -1,
                -1
            ],
            "type" : "VEC3"
        },
        {
            "bufferView" : 1,
            "componentType" : 5126,
            "count" : 697,
            "type" : "VEC2"
        },
        {
            "bufferView" : 2,
            "componentType" : 5126,
            "count" : 697,
            "type" : "VEC3"
        },
        {
            "bufferView" : 3,
            "componentType" : 5123,
            "count" : 2004,
            "type" : "SCALAR"
        },
        {
            "bufferView" : 4,
            "componentType" : 5126,
            "count" : 1008,
            "max" : [
                0.14000000059604645,
                2,
                1.01369047164917
            ],
            "min" : [
                -0.14000000059604645,
                -2,
                -5.043184280395508
            ],
            "type" : "VEC3"
        },
        {
            "bufferView" : 5,
            "componentType" : 5126,
            "count" : 1008,
            "type" : "VEC2"
        },
        {
            "bufferView" : 6,
            "componentType" : 5126,
            "count" : 1008,
            "type" : "VEC3"
        },
        {
            "bufferView" : 7,
            "componentType" : 5123,
            "count" : 1512,
            "type" : "SCALAR"
        },
        {
            "bufferView" : 8,
            "componentType" : 5126,
            "count" : 1008,
            "max" : [
                0,
                0.21929264068603516,
                2.693446636199951
            ],
            "min" : [
                0,
                -0.21929311752319336,
                -0.6115949153900146
            ],
            "type" : "VEC3"
        },
        {
            "bufferView" : 9,
            "componentType" : 5126,
            "count" : 1008,
            "type" : "VEC3"
        }
    ],
    "bufferViews" : [
        {
            "buffer" : 0,
            "byteLength" : 8364,
            "byteOffset" : 0,
            "target" : 34962
        },
        {
            "buffer" : 0,
            "byteLength" : 5576,
            "byteOffset" : 8364,
            "target" : 34962
        },
        {
            "buffer" : 0,
            "byteLength" : 8364,
            "byteOffset" : 13940,
            "target" : 34962
        },
        {
            "buffer" : 0,
            "byteLength" : 4008,
            "byteOffset" : 22304,
            "target" : 34963
        },
        {
            "buffer" : 0,
            "byteLength" : 12096,
            "byteOffset" : 26312,
            "target" : 34962
        },
        {
            "buffer" : 0,
            "byteLength" : 8064,
            "byteOffset" : 38408,
            "target" : 34962
        },
        {
            "buffer" : 0,
            "byteLength" : 12096,
            "byteOffset" : 46472,
            "target" : 34962
        },
        {
            "buffer" : 0,
            "byteLength" : 3024,
            "byteOffset" : 58568,
            "target" : 34963
        },
        {
            "buffer" : 0,
            "byteLength" : 12096,
            "byteOffset" : 61592,
            "target" : 34962
        },
        {
            "buffer" : 0,
            "byteLength" : 12096,
            "byteOffset" : 73688,
            "target" : 34962
        }
    ],
    "buffers" : [
        {
            "byteLength" : 85784,
            "uri" : "data:application/octet-stream;base64,"
        }
    ]
}
