{
    "asset" : {
        "generator" : "Khronos glTF Blender I/O v3.4.50",
        "version" : "2.0"
    },
    "scene" : 0,
    "scenes" : [
        {
            "name" : "Scene",
            "nodes" : [
                0,
                1
            ]
        }
    ],
    "nodes" : [
        {
            "mesh" : 0,
            "name" : "Column"
        },
        {
            "mesh" : 1,
            "name" : "Column.001",
            "translation" : [
                0,
                0,
                -6.70211124420166
            ]
        }
    ],
    "materials" : [
        {
            "doubleSided" : true,
            "name" : "Material",
            "pbrMetallicRoughness" : {
                "baseColorFactor" : [
                    0.800000011920929,
                    0.800000011920929,
                    0.800000011920929,
                    1
                ],
                "metallicFactor" : 0,
                "roughnessFactor" : 0.5
            }
        }
    ],
    "meshes" : [
        {
            "extras" : {
                "targetNames" : [
                    "Column.001"
                ]
            },
            "name" : "Cube",
            "primitives" : [
                {
                    "attributes" : {
                        "POSITION" : 0,
                        "TEXCOORD_0" : 1,
                        "NORMAL" : 2
                    },
                    "indices" : 3,
                    "material" : 0,
                    "targets" : [
                        {
                            "POSITION" : 4,
                            "NORMAL" : 5
                        }
                    ]
                }
            ],
            "weights" : [
                0
            ]
        },
        {
            "name" : "Cube.003",
            "primitives" : [
                {
                    "attributes" : {
                        "POSITION" : 6,
                        "TEXCOORD_0" : 7,
                        "NORMAL" : 8
                    },
                    "indices" : 9,
                    "material" : 0
                }
            ]
        }
    ],
    "accessors" : [
        {
            "bufferView" : 0,
            "componentType" : 5126,
            "count" : 1008,
            "max" : [
                0.14000000059604645,
                2,
                1.01369047164917
            ],
            "min" : [
                -0.14000000059604645,
                -2,
                -5.043184280395508
            ],
            "type" : "VEC3"
        },
        {
            "bufferView" : 1,
            "componentType" : 5126,
            "count" : 1008,
            "type" : "VEC2"
        },
        {
            "bufferView" : 2,
            "componentType" : 5126,
            "count" : 1008,
            "type" : "VEC3"
        },
        {
            "bufferView" : 3,
            "componentType" : 5123,
            "count" : 1512,
            "type" : "SCALAR"
        },
        {
            "bufferView" : 4,
            "componentType" : 5126,
            "count" : 1008,
            "max" : [
                0,
                0.21929264068603516,
                2.693446636199951
            ],
            "min" : [
                0,
                -0.21929311752319336,
                -0.6115949153900146
            ],
            "type" : "VEC3"
        },
        {
            "bufferView" : 5,
            "componentType" : 5126,
            "count" : 1008,
            "type" : "VEC3"
        },
        {
            "bufferView" : 6,
            "componentType" : 5126,
            "count" : 1008,
            "max" : [
                0.14000000059604645,
                2,
                0.4295683205127716
            ],
            "min" : [
                -0.14000000059604645,
                -2.0694427490234375,
                -2.5606656074523926
            ],
            "type" : "VEC3"
        },
        {
            "bufferView" : 7,
            "componentType" : 5126,
            "count" : 1008,
            "type" : "VEC2"
        },
        {
            "bufferView" : 8,
            "componentType" : 5126,
            "count" : 1008,
            "type" : "VEC3"
        },
        {
            "bufferView" : 9,
            "componentType" : 5123,
            "count" : 1512,
            "type" : "SCALAR"
        }
    ],
    "bufferViews" : [
        {
            "buffer" : 0,
            "byteLength" : 12096,
            "byteOffset" : 0,
            "target" : 34962
        },
        {
            "buffer" : 0,
            "byteLength" : 8064,
            "byteOffset" : 12096,
            "target" : 34962
        },
        {
            "buffer" : 0,
            "byteLength" : 12096,
            "byteOffset" : 20160,
            "target" : 34962
        },
        {
            "buffer" : 0,
            "byteLength" : 3024,
            "byteOffset" : 32256,
            "target" : 34963
        },
        {
            "buffer" : 0,
            "byteLength" : 12096,
            "byteOffset" : 35280,
            "target" : 34962
        },
        {
            "buffer" : 0,
            "byteLength" : 12096,
            "byteOffset" : 47376,
            "target" : 34962
        },
        {
            "buffer" : 0,
            "byteLength" : 12096,
            "byteOffset" : 59472,
            "target" : 34962
        },
        {
            "buffer" : 0,
            "byteLength" : 8064,
            "byteOffset" : 71568,
            "target" : 34962
        },
        {
            "buffer" : 0,
            "byteLength" : 12096,
            "byteOffset" : 79632,
            "target" : 34962
        },
        {
            "buffer" : 0,
            "byteLength" : 3024,
            "byteOffset" : 91728,
            "target" : 34963
        }
    ],
    "buffers" : [
        {
            "byteLength" : 94752,
            "uri" : "data:application/octet-stream;base64,"
        }
    ]
}
