{
    "asset" : {
        "generator" : "Khronos glTF Blender I/O v3.4.50",
        "version" : "2.0"
    },
    "scene" : 0,
    "scenes" : [
        {
            "name" : "Scene",
            "nodes" : [
                0
            ]
        }
    ],
    "nodes" : [
        {
            "mesh" : 0,
            "name" : "Cylinder",
            "scale" : [
                0.32793447375297546,
                0.32793447375297546,
                0.32793447375297546
            ],
            "translation" : [
                0,
                3,
                1.8000000715255737
            ]
        }
    ],
    "meshes" : [
        {
            "name" : "Cylinder",
            "primitives" : [
                {
                    "attributes" : {
                        "POSITION" : 0,
                        "TEXCOORD_0" : 1,
                        "NORMAL" : 2
                    },
                    "indices" : 3
                }
            ]
        }
    ],
    "accessors" : [
        {
            "bufferView" : 0,
            "componentType" : 5126,
            "count" : 4320,
            "max" : [
                0.638502836227417,
                5.926362991333008,
                0.6206569075584412
            ],
            "min" : [
                -0.6385025978088379,
                -9.1174955368042,
                -8.155740737915039
            ],
            "type" : "VEC3"
        },
        {
            "bufferView" : 1,
            "componentType" : 5126,
            "count" : 4320,
            "type" : "VEC2"
        },
        {
            "bufferView" : 2,
            "componentType" : 5126,
            "count" : 4320,
            "type" : "VEC3"
        },
        {
            "bufferView" : 3,
            "componentType" : 5123,
            "count" : 6606,
            "type" : "SCALAR"
        }
    ],
    "bufferViews" : [
        {
            "buffer" : 0,
            "byteLength" : 51840,
            "byteOffset" : 0,
            "target" : 34962
        },
        {
            "buffer" : 0,
            "byteLength" : 34560,
            "byteOffset" : 51840,
            "target" : 34962
        },
        {
            "buffer" : 0,
            "byteLength" : 51840,
            "byteOffset" : 86400,
            "target" : 34962
        },
        {
            "buffer" : 0,
            "byteLength" : 13212,
            "byteOffset" : 138240,
            "target" : 34963
        }
    ],
    "buffers" : [
        {
            "byteLength" : 151452,
            "uri" : "data:application/octet-stream;base64,"
        }
    ]
}
