{
    "asset" : {
        "generator" : "Khronos glTF Blender I/O v3.4.50",
        "version" : "2.0"
    },
    "extensionsUsed" : [
        "KHR_materials_transmission",
        "KHR_materials_specular"
    ],
    "scene" : 0,
    "scenes" : [
        {
            "name" : "Scene",
            "nodes" : [
                0
            ]
        }
    ],
    "nodes" : [
        {
            "mesh" : 0,
            "name" : "SM_picture_01",
            "rotation" : [
                0.70710688829422,
                0,
                0,
                0.7071066498756409
            ]
        }
    ],
    "materials" : [
        {
            "doubleSided" : true,
            "extensions" : {
                "KHR_materials_transmission" : {
                    "transmissionFactor" : 1
                },
                "KHR_materials_specular" : {
                    "specularColorFactor" : [
                        1,
                        1,
                        1
                    ]
                }
            },
            "name" : "picture1",
            "pbrMetallicRoughness" : {
                "baseColorFactor" : [
                    0,
                    0.27207767963409424,
                    0.5882005095481873,
                    1
                ],
                "metallicFactor" : 0,
                "roughnessFactor" : 0.8999999761581421
            }
        },
        {
            "doubleSided" : true,
            "name" : "frame",
            "pbrMetallicRoughness" : {
                "metallicFactor" : 0
            }
        }
    ],
    "meshes" : [
        {
            "name" : "SM_picture_01",
            "primitives" : [
                {
                    "attributes" : {
                        "POSITION" : 0,
                        "TEXCOORD_0" : 1,
                        "NORMAL" : 2
                    },
                    "indices" : 3,
                    "material" : 0
                },
                {
                    "attributes" : {
                        "POSITION" : 4,
                        "TEXCOORD_0" : 5,
                        "NORMAL" : 6
                    },
                    "indices" : 7,
                    "material" : 1
                }
            ]
        }
    ],
    "accessors" : [
        {
            "bufferView" : 0,
            "componentType" : 5126,
            "count" : 4,
            "max" : [
                22.5,
                0.1712999939918518,
                14.388999938964844
            ],
            "min" : [
                -22.5,
                0.1712000072002411,
                -14.3326997756958
            ],
            "type" : "VEC3"
        },
        {
            "bufferView" : 1,
            "componentType" : 5126,
            "count" : 4,
            "type" : "VEC2"
        },
        {
            "bufferView" : 2,
            "componentType" : 5126,
            "count" : 4,
            "type" : "VEC3"
        },
        {
            "bufferView" : 3,
            "componentType" : 5123,
            "count" : 6,
            "type" : "SCALAR"
        },
        {
            "bufferView" : 4,
            "componentType" : 5126,
            "count" : 52,
            "max" : [
                24.5,
                0.5,
                16.388999938964844
            ],
            "min" : [
                -24.5,
                0,
                -16.332700729370117
            ],
            "type" : "VEC3"
        },
        {
            "bufferView" : 5,
            "componentType" : 5126,
            "count" : 52,
            "type" : "VEC2"
        },
        {
            "bufferView" : 6,
            "componentType" : 5126,
            "count" : 52,
            "type" : "VEC3"
        },
        {
            "bufferView" : 7,
            "componentType" : 5123,
            "count" : 78,
            "type" : "SCALAR"
        }
    ],
    "bufferViews" : [
        {
            "buffer" : 0,
            "byteLength" : 48,
            "byteOffset" : 0,
            "target" : 34962
        },
        {
            "buffer" : 0,
            "byteLength" : 32,
            "byteOffset" : 48,
            "target" : 34962
        },
        {
            "buffer" : 0,
            "byteLength" : 48,
            "byteOffset" : 80,
            "target" : 34962
        },
        {
            "buffer" : 0,
            "byteLength" : 12,
            "byteOffset" : 128,
            "target" : 34963
        },
        {
            "buffer" : 0,
            "byteLength" : 624,
            "byteOffset" : 140,
            "target" : 34962
        },
        {
            "buffer" : 0,
            "byteLength" : 416,
            "byteOffset" : 764,
            "target" : 34962
        },
        {
            "buffer" : 0,
            "byteLength" : 624,
            "byteOffset" : 1180,
            "target" : 34962
        },
        {
            "buffer" : 0,
            "byteLength" : 156,
            "byteOffset" : 1804,
            "target" : 34963
        }
    ],
    "buffers" : [
        {
            "byteLength" : 1960,
            "uri" : "data:application/octet-stream;base64,"
        }
    ]
}
